<svg xmlns="http://www.w3.org/2000/svg" width="800" height="1200" viewBox="0 0 800 1200"><defs><pattern id="p" width="42" height="42" patternUnits="userSpaceOnUse" patternTransform="rotate(45)"><path d="M0 0h42v42H0z" fill="none"/><path d="M0 0v42" stroke="#f4dfb7" stroke-opacity=".16" stroke-width="3"/></pattern><filter id="s"><feDropShadow dx="10" dy="12" stdDeviation="0" flood-color="#050914" flood-opacity=".45"/></filter></defs><rect width="800" height="1200" fill="#263b73"/><rect width="800" height="1200" fill="url(#p)"/><path d="M0 0h800v88H0zM0 1088h800v112H0z" fill="#761933"/><rect x="34" y="34" width="732" height="1132" fill="none" stroke="#f4dfb7" stroke-width="4"/><g fill="none" stroke="#f4dfb7" stroke-width="13" stroke-linejoin="round" filter="url(#s)"><circle cx="400" cy="286" r="145"/><path d="M300 385 500 187M300 187l200 198M400 116v340M230 286h340"/></g><text x="64" y="520" class="kicker">METİNLERARASI · TRAGEDYA SEÇKİSİ</text><text x="64" y="590" class="title">İPHIGENIA</text><text x="64" y="695" class="title">TAURIS’TE</text><path d="M64 935h672" stroke="#f4dfb7" stroke-width="5"/><text x="64" y="1005" class="author">EURIPIDES</text><text x="64" y="1142" class="foot">EYLÜL · 2026</text><style>.kicker,.foot{fill:#f4dfb7;font:700 23px Arial,sans-serif;letter-spacing:5px}.title{fill:#fff8e8;font:900 72px Arial,sans-serif;letter-spacing:-3px}.author{fill:#f4dfb7;font:700 34px Georgia,serif;letter-spacing:3px}</style></svg>